<?xml version="1.0" standalone="no"?>
<!DOCTYPE svg PUBLIC "-//W3C//DTD SVG 20010904//EN"
 "http://www.w3.org/TR/2001/REC-SVG-20010904/DTD/svg10.dtd">
<svg version="1.0" xmlns="http://www.w3.org/2000/svg"
 width="4252.000000pt" height="4252.000000pt" viewBox="0 0 4252.000000 4252.000000"
 preserveAspectRatio="xMidYMid meet">

<g transform="translate(0.000000,4252.000000) scale(0.100000,-0.100000)"
fill="#000000" stroke="none">
<path d="M11257 25071 c-14 -28 -39 -62 -56 -77 -22 -18 -33 -38 -37 -66 -5
-27 -18 -51 -40 -73 -18 -18 -38 -51 -43 -73 -7 -26 -23 -49 -45 -65 -27 -21
-34 -34 -39 -74 -4 -39 -12 -53 -45 -83 -32 -28 -41 -44 -45 -79 -4 -34 -13
-50 -40 -72 -23 -19 -38 -42 -46 -72 -6 -28 -20 -50 -35 -60 -16 -11 -30 -36
-40 -70 -12 -40 -25 -62 -49 -80 -28 -21 -35 -35 -41 -74 -5 -39 -14 -55 -46
-84 -30 -28 -40 -44 -40 -67 0 -21 -12 -45 -40 -77 -22 -25 -44 -62 -50 -83
-6 -23 -22 -47 -40 -60 -16 -13 -30 -30 -30 -39 0 -44 -25 -94 -55 -112 -27
-16 -33 -26 -37 -66 -5 -40 -13 -54 -47 -85 -28 -26 -41 -46 -41 -65 0 -33
-16 -64 -46 -88 -14 -10 -31 -41 -39 -71 -11 -38 -23 -56 -40 -64 -16 -8 -27
-25 -35 -54 -6 -24 -13 -50 -16 -60 -3 -9 -20 -28 -39 -43 -23 -17 -35 -34
-35 -50 0 -39 -19 -78 -56 -111 -22 -21 -34 -41 -34 -58 0 -31 -26 -86 -40
-86 -15 0 -50 -62 -50 -88 0 -14 -13 -36 -30 -52 -17 -16 -39 -53 -50 -85 -11
-31 -32 -68 -48 -83 -19 -18 -31 -41 -36 -71 -5 -32 -16 -53 -40 -75 -23 -21
-37 -47 -45 -82 -9 -35 -23 -61 -46 -82 -23 -22 -35 -45 -40 -74 -5 -30 -20
-56 -46 -85 -24 -27 -39 -52 -39 -68 0 -33 -15 -62 -52 -98 -17 -18 -30 -44
-35 -69 -3 -22 -18 -55 -33 -72 -40 -46 -50 -70 -50 -119 0 -59 16 -102 45
-121 15 -10 29 -33 35 -58 7 -28 23 -54 45 -73 26 -23 37 -42 44 -79 8 -46 20
-62 60 -85 7 -4 19 -32 27 -62 9 -36 23 -62 43 -79 17 -14 34 -42 40 -66 7
-25 24 -53 46 -73 22 -19 35 -41 35 -56 0 -38 21 -75 51 -91 21 -10 30 -24 34
-52 12 -74 16 -82 44 -97 22 -11 34 -28 46 -67 9 -29 29 -64 44 -78 15 -14 33
-45 40 -70 8 -27 27 -57 47 -76 20 -19 34 -41 34 -55 0 -45 12 -69 46 -89 27
-17 35 -30 44 -75 9 -43 19 -60 44 -80 21 -16 36 -39 44 -70 7 -27 24 -58 42
-73 18 -17 33 -44 39 -72 7 -33 20 -53 45 -73 29 -24 37 -37 42 -79 6 -43 12
-53 40 -70 32 -19 54 -63 54 -110 0 -10 13 -27 30 -39 17 -13 36 -41 44 -67 9
-24 31 -62 51 -83 24 -27 35 -49 35 -70 0 -24 10 -40 41 -69 34 -31 42 -45 47
-85 4 -40 10 -50 37 -66 26 -16 36 -31 49 -79 12 -43 25 -65 46 -80 17 -12 30
-30 30 -41 0 -28 18 -59 51 -91 15 -14 31 -38 34 -52 3 -14 7 -38 10 -52 3
-14 19 -33 35 -42 32 -18 50 -56 50 -104 0 -22 8 -33 33 -48 26 -15 37 -32 51
-75 10 -33 29 -66 45 -81 17 -15 31 -39 34 -60 4 -22 25 -55 63 -98 l57 -63
76 -9 c72 -9 243 -10 666 -4 105 1 471 2 815 1 344 -1 715 1 825 3 110 3 328
8 485 11 157 3 319 8 360 10 41 2 305 7 585 10 453 6 511 8 523 23 6 9 12 24
12 34 0 9 15 32 33 51 23 22 36 47 41 75 6 41 24 66 60 87 10 6 21 31 27 60 7
39 18 58 49 86 29 27 40 45 40 66 0 21 11 41 34 65 19 20 40 54 47 77 7 25 25
50 44 66 25 19 34 34 40 70 6 44 16 59 62 96 11 9 24 34 28 55 4 22 21 54 40
76 19 20 39 55 45 77 8 29 19 45 40 56 29 15 33 23 45 97 4 29 13 42 35 53 35
18 50 43 50 82 0 20 11 40 35 63 20 19 41 53 47 75 6 22 27 54 45 71 18 18 33
41 33 51 0 41 22 82 54 101 29 17 34 26 38 73 4 40 11 57 29 70 51 38 59 49
59 84 0 28 8 45 35 72 19 20 40 55 47 77 6 23 26 57 43 77 18 19 37 56 43 80
8 30 21 52 41 67 20 15 32 34 37 59 9 53 30 90 54 98 23 7 40 42 40 81 0 15
16 42 40 68 26 28 43 58 47 80 4 25 15 43 34 57 19 13 34 37 44 71 10 34 27
63 50 84 23 21 35 41 35 59 0 35 15 62 56 101 22 20 34 41 34 57 0 16 16 44
40 72 22 25 43 57 46 70 3 12 23 37 45 54 36 30 39 36 39 84 1 29 7 70 15 92
19 52 19 131 0 185 -8 23 -15 66 -15 94 0 57 -12 80 -50 99 -19 9 -29 27 -40
71 -12 43 -23 62 -43 74 -17 11 -31 31 -38 54 -6 24 -22 47 -44 64 -27 20 -37
36 -42 68 -4 28 -16 51 -40 73 -20 19 -40 52 -48 79 -8 26 -27 61 -43 78 -16
17 -32 47 -36 66 -4 20 -22 51 -45 75 -27 28 -40 52 -44 80 -5 29 -16 48 -41
70 -27 23 -38 42 -47 82 -8 39 -18 58 -39 73 -18 13 -35 39 -45 71 -10 28 -30
62 -45 76 -17 15 -30 39 -34 63 -4 28 -18 51 -46 79 -24 23 -40 49 -40 63 0
44 -12 67 -45 87 -28 16 -35 28 -45 75 -9 43 -18 60 -40 76 -18 13 -34 36 -40
61 -6 22 -26 57 -44 77 -19 21 -36 53 -40 76 -5 25 -20 51 -45 75 -29 29 -40
48 -45 84 -6 38 -13 49 -41 65 -28 17 -35 29 -46 77 -9 42 -20 61 -40 76 -18
12 -33 36 -40 61 -6 23 -24 55 -41 71 -33 33 -48 66 -48 102 0 15 -13 34 -39
54 -33 26 -39 38 -45 82 -6 42 -12 53 -36 67 -30 17 -44 42 -56 97 -3 17 -22
44 -40 62 -22 20 -34 41 -34 58 0 16 -15 42 -39 68 -27 29 -42 57 -49 92 -6
28 -18 54 -28 60 -38 22 -54 46 -54 81 0 45 -14 70 -48 88 -18 10 -33 30 -44
64 -13 35 -25 51 -40 56 -13 3 -971 6 -2129 6 -1159 0 -2121 3 -2137 6 -29 6
-32 3 -55 -45z m2817 -1320 c26 -5 52 -14 57 -22 14 -23 11 -1219 -4 -1248 -6
-14 -25 -32 -42 -41 -18 -10 -31 -26 -33 -41 -5 -33 -17 -46 -51 -52 -21 -4
-30 -14 -37 -39 -7 -25 -18 -36 -43 -44 -25 -8 -37 -20 -45 -44 -8 -25 -19
-36 -42 -42 -24 -6 -33 -16 -40 -40 -7 -25 -18 -36 -43 -44 -25 -8 -37 -20
-45 -44 -8 -25 -19 -36 -42 -42 -24 -6 -33 -16 -40 -40 -7 -25 -18 -36 -44
-44 -27 -9 -36 -18 -38 -38 -4 -36 -35 -53 -110 -61 -49 -6 -68 -4 -87 9 -13
9 -33 16 -43 16 -24 0 -42 19 -42 46 0 25 -14 37 -44 39 -21 2 -48 33 -40 47
9 14 -16 38 -40 38 -28 0 -46 18 -46 46 0 25 -14 37 -44 39 -21 2 -48 33 -40
47 9 14 -16 38 -40 38 -28 0 -46 18 -46 46 0 25 -14 37 -44 39 -21 2 -48 33
-40 47 9 14 -16 38 -40 38 -28 0 -46 18 -46 47 0 13 -4 23 -9 23 -5 0 -13 9
-16 20 -3 11 -15 20 -25 20 -11 0 -28 12 -37 27 -17 25 -18 69 -18 624 0 481
3 599 13 612 8 9 32 18 55 20 81 7 1313 5 1361 -2z m-1670 -1530 c10 -4 26
-22 35 -41 11 -24 26 -36 48 -42 25 -7 34 -16 41 -41 6 -24 16 -35 42 -43 24
-8 36 -20 44 -44 8 -26 19 -36 43 -42 25 -7 34 -16 41 -41 6 -24 16 -35 42
-43 24 -8 36 -20 44 -44 8 -26 19 -36 43 -42 25 -7 34 -16 41 -41 6 -24 16
-35 42 -43 24 -8 36 -20 44 -44 8 -24 20 -35 46 -44 28 -9 36 -18 45 -49 6
-21 23 -48 39 -60 21 -17 27 -29 24 -51 -1 -16 -11 -33 -20 -37 -10 -5 -26
-13 -35 -18 -10 -4 -20 -19 -21 -32 -5 -33 -18 -47 -51 -54 -21 -4 -31 -14
-38 -38 -6 -24 -17 -35 -42 -43 -25 -8 -37 -20 -45 -45 -8 -25 -19 -36 -42
-42 -24 -7 -34 -17 -41 -41 -6 -23 -17 -34 -42 -42 -25 -8 -37 -20 -45 -45 -8
-25 -19 -36 -42 -42 -24 -7 -34 -17 -41 -41 -6 -23 -17 -34 -43 -42 -26 -9
-36 -19 -43 -43 -8 -32 -25 -44 -79 -55 -16 -4 -28 -13 -28 -20 0 -8 -7 -22
-16 -30 -14 -14 -83 -16 -617 -16 -331 0 -608 4 -616 9 -7 5 -22 33 -32 62
-18 50 -19 93 -19 714 0 363 4 666 9 673 4 7 21 17 37 22 35 10 1221 12 1248
1z m3262 -15 c20 -27 16 -1374 -4 -1398 -7 -9 -12 -20 -11 -24 3 -21 -2 -32
-18 -38 -28 -11 -1180 -7 -1209 4 -19 8 -25 16 -21 30 4 14 0 20 -13 20 -10 0
-23 7 -30 15 -7 8 -22 15 -34 15 -28 0 -46 18 -46 46 0 26 -17 40 -42 36 -18
-3 -50 36 -42 50 9 14 -16 38 -40 38 -28 0 -46 18 -46 46 0 26 -17 40 -42 36
-18 -3 -50 36 -42 50 9 14 -16 38 -40 38 -28 0 -46 18 -46 46 0 26 -17 40 -42
36 -18 -3 -50 36 -42 50 9 14 -16 38 -40 38 -28 0 -46 18 -46 46 0 12 -7 27
-15 34 -8 7 -15 20 -15 29 0 13 -2 14 -9 2 -8 -12 -12 -12 -25 -2 -19 16 -10
41 14 41 14 0 20 11 25 53 9 62 17 74 56 82 23 5 31 14 36 37 5 24 15 34 43
45 26 11 39 23 46 46 7 24 17 34 42 41 26 7 34 16 39 39 5 23 15 33 43 44 26
11 39 23 46 46 7 24 17 34 42 41 26 7 34 16 39 39 5 23 15 33 43 44 26 11 39
23 46 46 6 22 18 34 42 41 21 7 38 23 50 46 10 20 27 37 42 41 14 4 301 7 638
6 593 -2 614 -3 628 -21z m-2217 -1044 c10 -21 24 -35 40 -38 47 -10 50 -13
59 -46 6 -25 16 -36 42 -44 24 -8 36 -20 44 -45 8 -25 19 -36 44 -43 24 -7 34
-16 40 -40 6 -23 17 -34 42 -42 24 -8 36 -20 44 -45 8 -25 19 -36 44 -43 24
-7 34 -16 40 -40 6 -23 17 -34 42 -42 24 -8 36 -20 44 -44 8 -24 20 -35 46
-44 28 -9 36 -18 43 -47 6 -27 17 -40 43 -52 l34 -17 0 -596 0 -596 -52 -49
c-36 -33 -62 -49 -80 -49 -28 0 -1174 -1 -1227 0 -21 0 -44 14 -82 50 l-54 51
0 583 c0 630 -2 602 54 629 16 7 27 22 29 37 5 34 17 47 52 54 24 4 32 12 37
37 4 23 15 35 39 45 22 9 39 26 48 48 10 24 22 35 45 39 25 5 33 13 38 38 4
23 15 35 39 45 22 9 39 26 48 48 10 24 22 35 45 39 25 5 33 13 38 38 4 23 15
35 39 45 22 9 39 26 48 48 10 25 22 36 46 41 21 5 34 15 41 33 17 43 30 53 68
50 30 -2 39 -9 50 -36z"/>
</g>
</svg>
